{"glyphs":{":":{"x_min":0,"x_max":215,"ha":215,"o":"m 89 475 b 66 475 47 456 47 432 b 47 409 66 390 89 390 b 113 390 132 409 132 432 b 132 456 113 475 89 475 z m 89 81 b 66 81 47 62 47 38 b 47 15 66 -4 89 -4 b 113 -4 132 15 132 38 b 132 62 113 81 89 81 z"},"$":{"x_min":0,"x_max":542,"ha":542,"o":"m 286 750 l 228 750 l 228 662 b 202 659 179 653 159 644 b 138 635 121 624 106 610 b 91 597 80 581 72 564 b 65 547 61 529 61 510 b 61 480 66 455 75 434 b 84 413 97 396 112 381 b 127 367 145 355 165 346 b 186 337 207 329 228 322 l 228 47 b 193 51 162 59 133 72 b 105 85 80 99 59 112 l 26 64 b 51 45 81 28 116 15 b 151 2 188 -6 228 -9 l 228 -70 l 286 -70 l 286 -8 b 312 -6 337 -1 360 7 b 384 14 405 25 423 40 b 441 54 455 72 466 93 b 477 114 483 140 483 169 b 483 202 477 229 465 250 b 454 272 439 290 420 304 b 401 319 380 330 357 339 b 334 348 310 357 286 364 l 286 606 b 320 601 350 593 376 580 b 403 568 427 555 448 542 l 481 590 b 456 608 426 624 393 637 b 360 650 324 659 286 662 z m 228 384 b 213 390 200 397 187 404 b 174 411 163 420 153 429 b 144 439 136 450 131 463 b 126 476 123 492 123 510 b 123 535 132 557 150 575 b 168 594 177 603 228 608 z m 286 303 b 304 297 321 290 337 283 b 354 276 368 267 380 257 b 393 247 403 235 410 220 b 417 206 421 189 421 169 b 421 148 417 130 410 115 b 403 100 394 88 381 78 b 369 68 355 60 338 55 b 322 50 314 48 286 46 z"},"?":{"x_min":0,"x_max":463,"ha":463,"o":"m 118 494 l 131 496 l 117 548 b 116 547 113 547 111 547 b 103 547 94 550 89 555 b 86 558 81 566 81 576 b 81 586 87 600 93 606 b 99 612 113 624 125 630 b 131 633 154 642 166 645 b 178 648 199 650 211 650 b 225 650 246 647 267 639 b 287 631 299 623 313 610 b 327 597 339 582 347 564 b 356 544 359 524 359 503 b 359 474 353 453 342 433 b 329 409 311 394 297 383 b 279 369 269 362 240 346 b 217 334 200 324 182 310 b 164 296 151 284 138 262 b 125 240 120 222 120 192 b 120 173 122 157 126 139 l 178 150 b 174 170 173 182 173 193 b 173 208 175 224 191 244 b 203 259 216 270 235 282 b 245 288 241 286 293 317 b 312 328 332 341 350 358 b 365 372 383 392 395 418 b 406 442 412 469 412 502 b 412 533 407 560 396 585 b 385 610 368 632 352 647 b 335 663 312 678 287 688 b 262 698 236 703 210 703 b 190 703 166 700 147 695 b 129 690 108 682 89 670 b 73 660 55 644 45 630 b 35 616 28 597 28 576 b 28 553 37 532 51 518 b 67 502 89 494 110 494 z m 168 100 b 142 100 120 78 120 52 b 120 26 142 5 168 5 b 194 5 215 26 215 52 b 215 78 194 100 168 100 z"},"<":{"x_min":0,"x_max":389,"ha":389,"o":"m 310 403 l 278 450 l 12 265 l 278 80 l 312 129 l 114 267 z"},"'":{"x_min":0,"x_max":193,"ha":193,"o":"m 107 492 l 117 684 l 45 684 l 55 492 z"},"=":{"x_min":0,"x_max":459,"ha":459,"o":"m 406 347 l 406 399 l 54 399 l 54 347 z m 406 187 l 406 239 l 54 239 l 54 187 z"},"a":{"x_min":0,"x_max":613,"ha":613,"o":"m 524 61 b 517 50 508 45 495 45 b 486 45 478 49 471 56 b 464 63 460 71 460 80 l 460 499 l 405 499 b 390 501 371 503 349 505 b 327 507 302 508 274 508 b 239 508 207 501 178 488 b 149 475 125 456 105 433 b 84 410 69 382 58 350 b 47 318 41 284 41 247 b 41 211 46 178 55 147 b 64 116 78 88 97 65 b 115 42 137 23 164 10 b 190 -3 220 -10 254 -10 b 288 -10 318 -3 344 10 b 370 23 391 43 406 68 b 409 46 419 28 436 13 b 452 -3 472 -10 495 -10 b 510 -10 525 -7 538 1 b 551 8 561 17 569 30 z m 405 188 b 405 163 400 142 391 124 b 382 105 370 90 356 78 b 341 66 325 57 307 51 b 289 45 271 42 254 42 b 228 42 205 48 186 60 b 166 71 150 87 137 106 b 124 125 114 147 108 172 b 101 197 98 223 98 250 b 98 281 102 309 111 334 b 119 359 131 381 147 399 b 162 417 181 431 203 441 b 224 451 248 456 275 456 b 303 456 329 455 352 452 b 375 449 393 448 405 448 z"},"L":{"x_min":0,"x_max":512,"ha":512,"o":"m 115 57 l 115 684 l 54 684 l 54 0 l 442 0 l 442 57 z"},"3":{"x_min":0,"x_max":559,"ha":559,"o":"m 89 612 l 117 564 b 166 597 211 614 258 614 b 297 614 331 602 353 585 b 374 569 389 544 389 512 b 389 490 382 474 377 464 b 368 447 355 433 347 426 b 333 414 313 404 306 401 b 294 396 276 392 262 392 l 153 392 l 153 336 l 263 336 b 286 335 306 331 324 325 b 344 318 361 308 376 295 b 391 282 402 268 411 248 b 419 230 426 207 426 180 b 426 143 412 109 378 84 b 344 59 295 47 243 47 b 203 47 171 54 139 67 b 111 78 73 99 59 107 l 34 58 b 63 41 93 25 127 12 b 161 -1 201 -12 253 -12 b 326 -12 387 10 426 40 b 473 76 490 125 490 175 b 490 204 484 231 477 250 b 469 271 459 290 447 306 b 434 323 419 337 402 349 b 386 360 372 367 350 372 b 353 373 367 379 372 382 b 376 384 397 399 406 407 b 416 416 427 429 437 449 b 445 465 454 488 454 517 b 454 563 432 600 403 625 b 368 655 320 672 262 672 b 215 672 181 661 160 652 b 140 643 121 632 99 618 z"},";":{"x_min":0,"x_max":199,"ha":199,"o":"m 89 475 b 66 475 47 456 47 432 b 47 409 66 390 89 390 b 113 390 132 409 132 432 b 132 456 113 475 89 475 z m 55 32 b 57 6 55 -14 51 -27 b 46 -40 37 -54 24 -67 l 58 -100 b 83 -82 100 -63 108 -42 b 116 -21 120 4 120 32 l 120 52 b 120 61 117 69 111 75 b 105 82 97 85 88 85 b 79 85 71 82 65 75 b 59 69 56 61 55 52 z"},"J":{"x_min":0,"x_max":468,"ha":468,"o":"m 31 667 l 56 618 l 59 617 b 71 623 84 628 93 631 b 105 635 121 639 137 639 b 148 639 153 637 161 635 l 188 625 b 191 624 220 613 230 610 b 242 607 261 604 277 604 b 290 604 303 606 310 608 b 313 609 324 613 331 617 l 331 194 l 330 175 b 329 164 327 154 325 145 b 323 137 319 126 314 114 b 308 101 304 94 295 84 b 274 65 250 53 209 53 b 170 53 139 64 117 85 b 111 93 106 99 101 110 b 95 122 92 133 91 137 b 87 154 89 153 87 159 l 86 174 l 84 175 l 83 175 l 77 176 b 74 177 69 177 62 177 l 29 179 b 30 150 34 127 41 106 b 48 85 58 65 76 47 b 109 11 156 -4 209 -4 b 258 -4 302 9 336 46 b 347 57 355 67 364 85 b 372 102 377 117 380 127 b 385 145 385 158 386 164 b 386 163 388 147 388 191 l 388 687 l 332 687 b 333 686 321 676 314 672 b 302 664 294 661 280 661 b 266 661 251 664 225 672 l 174 690 b 162 694 148 696 140 696 b 134 696 115 695 102 692 b 97 691 73 684 68 682 b 55 678 48 675 44 672 z"},"V":{"x_min":0,"x_max":680,"ha":680,"o":"m 70 607 b 73 617 77 621 83 625 b 89 629 94 631 103 631 b 109 630 114 629 121 625 b 128 621 131 616 133 610 l 339 0 l 397 0 l 620 685 l 560 685 l 380 123 l 368 86 l 188 625 l 181 640 b 177 649 170 658 166 662 b 159 670 148 678 140 682 b 129 688 117 690 105 690 b 82 690 64 683 48 671 b 33 660 20 643 14 623 z"},"\"":{"x_min":0,"x_max":314,"ha":314,"o":"m 113 492 l 123 684 l 51 684 l 61 492 z m 223 492 l 233 684 l 161 684 l 171 492 z"},"7":{"x_min":0,"x_max":487,"ha":487,"o":"m 437 645 l 437 653 l 222 650 l 123 650 l 20 648 l 20 592 l 248 592 b 279 593 316 594 358 596 l 119 0 l 183 0 z"},"S":{"x_min":0,"x_max":559,"ha":559,"o":"m 277 348 l 334 320 b 353 310 369 300 384 288 b 396 278 410 266 420 246 b 427 232 433 211 433 186 b 433 161 427 140 421 126 b 413 108 401 92 386 77 b 371 62 353 51 333 43 b 312 34 288 30 266 30 b 224 30 185 43 151 68 b 117 92 91 125 74 164 l 23 144 b 32 120 52 89 64 74 b 80 55 96 39 122 21 b 144 6 165 -5 190 -13 b 218 -22 246 -25 267 -25 b 300 -25 329 -18 354 -8 b 382 3 403 17 424 38 b 444 58 460 79 472 105 b 482 128 488 147 488 184 b 488 226 480 249 469 271 b 458 292 440 315 422 330 b 409 341 383 358 362 369 b 341 380 310 394 305 397 l 299 400 b 282 407 265 415 248 424 b 225 436 215 443 199 456 b 185 467 171 481 162 493 b 150 509 146 522 146 541 b 146 557 149 572 155 584 b 161 596 171 610 180 618 b 187 624 204 636 220 642 b 236 648 257 651 272 651 b 278 651 297 650 310 647 b 321 645 334 639 343 634 b 355 627 359 623 365 614 b 373 602 374 596 374 590 b 374 585 373 580 371 575 b 369 572 368 568 362 561 b 360 558 353 553 350 552 b 347 551 340 551 336 553 l 332 501 b 335 501 338 500 341 500 b 352 500 364 502 369 504 b 380 507 393 515 400 521 b 408 528 415 536 421 549 b 426 560 429 573 429 588 b 429 604 425 622 417 636 b 408 652 392 667 384 673 b 371 683 350 692 335 697 b 316 703 294 706 273 706 b 248 706 223 702 198 692 b 175 683 154 668 141 656 b 125 641 114 627 104 605 b 96 587 91 569 91 541 b 91 509 97 492 111 470 b 126 447 140 433 158 417 b 176 401 189 391 217 376 b 237 365 261 354 269 351 z"},"}":{"x_min":0,"x_max":322,"ha":322,"o":"m 23 704 b 43 699 61 694 77 689 b 92 684 105 678 116 671 b 127 664 135 655 140 645 b 145 635 148 622 148 607 b 148 595 147 579 145 560 l 138 499 b 135 477 133 455 131 434 b 129 413 128 394 128 377 b 128 362 131 349 136 338 b 141 327 148 319 155 312 b 162 305 169 299 176 295 b 183 292 189 289 194 288 b 189 287 182 284 175 280 b 168 276 161 270 154 263 b 147 256 141 248 136 237 b 131 227 128 215 128 200 b 128 183 129 164 131 142 b 133 121 135 99 138 78 l 145 17 b 147 -2 148 -18 148 -30 b 148 -45 145 -58 140 -68 b 135 -78 127 -87 116 -94 b 105 -101 92 -107 76 -112 b 61 -117 43 -122 23 -127 l 37 -173 b 57 -167 77 -161 97 -156 b 118 -151 136 -143 152 -134 b 169 -125 182 -112 193 -95 b 204 -78 209 -56 209 -28 b 209 -9 208 12 206 34 b 204 56 202 77 199 98 l 192 157 b 190 175 189 189 189 200 b 189 211 192 219 197 226 b 202 233 209 239 217 244 b 225 249 234 252 244 255 b 253 258 263 260 272 261 l 272 316 b 263 317 254 318 245 320 b 235 323 226 326 218 331 b 209 336 202 342 197 349 b 192 356 189 366 189 377 b 189 388 190 402 192 420 l 199 478 b 202 499 204 521 206 543 b 208 565 209 586 209 605 b 209 633 204 655 193 672 b 182 689 169 702 152 711 b 136 720 118 728 97 733 b 77 738 57 744 37 750 z"},"Z":{"x_min":0,"x_max":589,"ha":589,"o":"m 135 90 l 488 681 l 82 681 l 82 628 l 395 628 l 27 12 l 72 -15 l 108 46 b 136 41 150 37 191 24 b 219 15 251 5 280 -2 b 312 -10 337 -14 368 -14 b 394 -14 410 -11 430 -4 b 448 2 465 11 478 19 b 492 27 502 35 510 42 l 522 54 l 484 91 l 475 83 b 467 75 460 70 451 65 b 441 59 428 52 415 47 b 399 41 384 39 367 39 b 343 39 321 43 294 50 b 264 58 243 64 206 75 b 194 79 179 82 169 84 z"},"x":{"x_min":0,"x_max":558,"ha":558,"o":"m 273 252 l 426 500 l 360 500 l 235 294 l 106 500 l 39 500 l 199 250 l 41 0 l 106 0 l 235 206 l 347 24 b 357 11 369 0 383 -8 b 397 -15 411 -19 426 -19 b 450 -19 470 -10 487 7 b 504 24 513 45 514 68 l 457 71 b 457 62 454 54 447 48 b 441 41 433 38 424 38 b 411 38 401 43 395 54 z"},")":{"x_min":0,"x_max":370,"ha":370,"o":"m 32 707 b 64 688 94 664 121 634 b 148 604 172 571 192 534 b 211 497 227 458 238 417 b 249 376 254 335 254 294 b 254 253 249 213 238 172 b 227 131 211 92 192 55 b 172 18 148 -15 121 -45 b 94 -75 64 -99 32 -118 l 57 -161 b 101 -137 139 -108 172 -75 b 204 -41 231 -4 252 36 b 273 75 289 117 300 161 b 310 205 315 249 315 294 b 315 339 310 383 300 428 b 289 472 273 514 252 554 b 231 593 204 630 172 664 b 139 697 101 726 57 750 z"},"&":{"x_min":0,"x_max":636,"ha":636,"o":"m 540 -3 l 576 38 l 485 123 b 502 151 516 181 525 214 b 534 247 538 280 538 315 l 538 357 l 485 357 l 485 317 b 485 289 482 262 475 235 b 468 208 458 182 445 159 l 294 301 b 280 314 265 328 250 341 b 235 354 221 368 208 383 b 195 398 185 413 177 429 b 169 444 165 461 165 480 b 165 510 173 534 188 552 b 203 570 229 579 268 579 b 285 579 303 575 322 568 b 340 560 356 542 369 514 l 408 548 b 403 562 395 575 384 586 b 373 597 361 606 349 613 b 336 620 324 625 311 629 b 298 632 286 634 277 634 b 247 634 221 630 199 622 b 176 613 158 602 144 588 b 129 574 118 558 111 539 b 104 520 100 501 100 480 b 100 453 105 430 114 409 b 123 388 136 369 151 352 b 132 343 116 331 102 318 b 88 304 77 289 68 272 b 59 255 52 238 47 220 b 42 202 40 184 40 166 b 40 139 45 114 55 93 b 65 71 79 52 97 37 b 114 22 135 10 159 2 b 182 -6 208 -10 235 -10 b 282 -10 323 -2 359 14 b 395 29 426 51 451 79 z m 263 252 l 412 114 b 391 92 366 75 337 62 b 308 49 274 42 235 42 b 216 42 199 45 182 51 b 165 56 151 65 138 76 b 125 87 115 100 108 116 b 101 132 97 150 97 170 b 97 198 105 225 120 252 b 135 279 158 299 190 314 z"},"_":{"x_min":0,"x_max":579,"ha":579,"o":"m 494 -133 l 494 -78 l 54 -78 l 54 -133 z"},"v":{"x_min":0,"x_max":493,"ha":493,"o":"m 30 471 b 39 466 49 458 58 447 b 67 437 74 426 79 415 l 216 0 l 272 0 l 435 499 l 380 499 l 244 84 l 138 408 b 129 434 118 456 105 473 b 92 490 76 505 59 516 z"},"O":{"x_min":0,"x_max":809,"ha":809,"o":"m 40 330 b 40 284 48 239 68 192 b 88 144 116 107 144 79 b 179 44 215 19 256 1 b 297 -17 342 -27 392 -27 b 441 -27 489 -17 533 3 b 575 22 613 51 642 83 b 672 116 699 159 715 198 b 732 239 739 282 739 330 l 739 349 b 739 393 731 440 712 486 b 693 532 666 569 638 598 b 605 632 569 658 527 677 b 487 695 441 706 389 706 b 335 706 287 694 248 676 b 205 656 166 626 137 595 b 107 563 82 522 66 482 b 48 437 40 391 40 349 z m 683 330 b 683 288 675 249 660 213 b 645 178 626 147 597 117 b 569 88 533 65 504 52 b 471 37 431 28 388 28 b 348 28 312 36 276 52 b 241 67 208 90 182 117 b 158 142 136 172 119 213 b 104 249 96 288 96 330 l 96 349 b 96 391 104 430 119 466 b 133 500 154 533 182 562 b 210 591 242 612 276 627 b 310 642 345 651 388 651 b 431 651 471 642 504 627 b 534 614 570 590 597 562 b 625 533 645 502 660 466 b 676 428 683 409 683 349 z"},"(":{"x_min":0,"x_max":370,"ha":370,"o":"m 283 750 b 239 726 201 697 169 664 b 136 630 109 593 88 554 b 67 514 51 472 41 428 b 30 383 25 339 25 294 b 25 249 30 205 41 161 b 51 117 67 75 88 36 b 109 -4 136 -41 169 -75 b 201 -108 239 -137 283 -161 l 308 -118 b 276 -99 246 -75 219 -45 b 192 -15 168 18 149 55 b 129 92 114 131 103 172 b 92 213 86 253 86 294 b 86 335 92 376 103 417 b 114 458 129 497 149 534 b 168 571 192 604 219 634 b 246 664 276 688 308 707 z"},"C":{"x_min":0,"x_max":740,"ha":740,"o":"m 625 155 b 601 119 563 87 527 67 b 489 46 442 33 388 33 b 340 33 305 43 273 57 b 231 75 202 99 179 123 b 151 153 130 184 116 219 b 104 249 94 291 94 337 b 94 376 101 417 118 459 b 133 496 153 527 183 559 b 208 586 238 610 280 629 b 317 646 354 655 397 655 b 418 655 435 653 455 649 b 475 645 496 638 511 631 b 530 622 546 610 554 602 b 563 593 571 577 571 560 b 571 551 569 541 561 532 b 554 524 545 521 537 521 b 528 521 522 525 516 529 l 482 486 b 499 473 518 467 537 467 b 564 467 585 478 600 494 b 618 513 625 536 625 560 b 625 588 615 611 605 625 b 596 638 575 658 551 672 b 529 685 498 696 477 701 b 452 707 421 710 396 710 b 347 710 302 699 260 680 b 218 661 179 635 145 599 b 111 563 85 522 68 480 b 50 436 40 385 40 336 b 40 286 50 237 66 197 b 81 159 108 117 140 84 b 171 52 210 24 251 6 b 290 -11 338 -22 390 -22 b 450 -22 505 -7 551 18 b 602 45 627 61 670 124 z"},"W":{"x_min":0,"x_max":1120,"ha":1120,"o":"m 69 612 b 74 628 85 636 100 636 b 117 636 128 628 133 613 l 334 0 l 393 0 l 585 591 l 778 0 l 837 0 l 1060 685 l 1000 685 l 812 100 l 810 86 b 809 83 809 80 809 76 l 809 72 l 803 100 l 615 685 l 556 685 l 368 100 l 363 79 l 361 89 l 359 100 l 188 631 b 182 650 171 666 154 677 b 138 688 120 694 101 694 b 80 694 62 688 46 676 b 30 663 19 647 14 628 z"},"A":{"x_min":0,"x_max":775,"ha":775,"o":"m 715 0 l 418 686 l 399 686 l 135 75 b 130 63 121 55 105 55 b 95 55 89 58 84 62 b 79 66 74 74 72 82 l 15 71 b 18 53 26 34 47 17 b 63 4 83 -4 105 -4 b 120 -4 138 0 154 10 b 170 20 181 33 188 50 l 261 227 l 556 227 l 651 0 z m 398 552 l 408 585 b 409 578 411 573 413 568 l 417 557 l 419 552 l 532 284 l 285 284 z"},"f":{"x_min":0,"x_max":399,"ha":399,"o":"m 52 -260 l 107 -260 l 107 200 l 255 200 l 255 252 l 107 252 l 107 415 l 155 415 b 218 415 267 431 302 462 b 337 493 355 539 355 600 b 355 619 352 637 346 654 b 340 671 331 687 319 700 b 307 713 292 723 274 731 b 255 738 234 742 209 742 b 179 742 154 736 134 723 b 114 711 98 694 86 673 b 74 652 65 626 60 597 b 55 568 52 536 52 502 z m 107 467 l 107 505 b 107 530 108 553 111 575 b 114 598 119 617 126 634 b 134 651 144 665 157 675 b 170 685 188 690 209 690 b 239 690 261 681 276 663 b 291 645 298 624 298 600 b 298 581 295 564 290 548 b 285 532 277 518 265 506 b 254 494 239 484 221 477 b 203 470 181 467 155 467 z"},"Q":{"x_min":0,"x_max":781,"ha":781,"o":"m 175 -166 l 218 -199 l 260 -138 l 359 -171 b 383 -179 398 -183 420 -187 b 442 -191 460 -193 500 -193 b 529 -193 547 -192 604 -150 l 579 -106 b 537 -135 512 -141 484 -141 b 468 -141 445 -139 428 -136 b 411 -133 391 -128 371 -121 l 291 -94 l 350 -9 b 355 -9 359 -9 364 -10 l 378 -10 b 433 -10 476 0 516 17 b 563 37 595 63 622 91 b 649 120 671 149 691 203 b 706 244 715 287 715 342 b 715 393 707 438 691 481 b 676 521 654 559 622 593 b 595 622 558 649 516 667 b 474 685 430 694 378 694 b 326 694 281 685 239 667 b 198 650 162 624 133 593 b 104 562 81 528 64 482 b 47 436 40 387 40 343 b 40 302 46 258 57 222 b 68 186 87 149 108 120 b 130 89 158 64 188 44 b 216 26 241 12 293 0 z m 379 639 b 421 639 458 631 491 617 b 525 603 554 582 578 556 b 604 528 622 499 635 463 b 648 427 655 387 655 341 b 655 295 648 258 635 222 b 622 186 604 155 579 128 b 553 100 525 81 492 67 b 457 52 419 45 378 45 b 331 45 296 54 265 67 b 225 84 200 105 178 128 b 155 152 136 180 121 222 b 107 261 101 298 101 340 b 101 386 108 428 121 463 b 135 501 159 537 178 558 b 199 581 228 603 265 618 b 297 631 337 639 379 639 z"},"w":{"x_min":0,"x_max":828,"ha":828,"o":"m 30 472 b 39 467 49 459 58 448 b 67 438 74 427 79 416 l 214 1 l 271 1 l 406 414 l 541 1 l 597 1 l 760 500 l 704 500 l 569 87 l 434 500 l 378 500 l 243 87 l 137 408 b 128 434 117 456 104 473 b 91 491 76 506 59 517 z"},"-":{"x_min":0,"x_max":436,"ha":436,"o":"m 351 277 l 351 334 l 54 334 l 54 277 z"},"E":{"x_min":0,"x_max":648,"ha":648,"o":"m 578 628 l 578 684 l 117 684 b 100 684 88 680 78 676 b 62 669 54 662 44 652 b 33 641 27 631 22 619 b 18 609 14 597 14 579 l 70 579 b 70 592 76 606 84 614 b 93 623 106 628 118 628 l 130 628 l 130 0 l 578 0 l 578 57 l 191 57 l 191 333 l 458 333 l 458 390 l 191 390 l 191 628 z"},"s":{"x_min":0,"x_max":444,"ha":444,"o":"m 31 48 b 52 32 76 18 105 7 b 134 -4 166 -10 200 -10 b 220 -10 241 -8 262 -3 b 284 2 304 9 322 20 b 340 31 355 46 366 65 b 377 84 383 107 383 135 b 383 164 376 187 363 205 b 350 224 334 239 314 251 b 294 263 273 273 250 281 b 227 290 206 298 186 307 b 166 316 149 327 136 339 b 123 351 117 367 117 387 b 117 405 124 421 138 435 b 152 449 172 456 198 456 b 216 456 235 453 256 448 b 277 443 300 435 323 426 l 334 477 b 317 488 296 495 271 500 b 247 505 225 508 205 508 b 182 508 162 505 144 498 b 126 491 111 482 98 471 b 85 460 76 448 69 433 b 62 418 59 403 59 387 b 59 359 65 336 78 319 b 91 302 108 287 128 276 b 148 265 169 255 192 247 b 215 240 236 231 256 222 b 276 213 292 201 305 188 b 318 175 325 157 325 135 b 325 116 321 100 314 88 b 307 76 297 67 285 60 b 274 53 261 49 247 46 b 234 43 221 42 208 42 b 176 42 147 47 122 57 b 97 68 76 79 59 90 z"},">":{"x_min":0,"x_max":389,"ha":389,"o":"m 347 265 l 81 450 l 47 401 l 245 263 l 49 127 l 81 80 z"},"l":{"x_min":0,"x_max":261,"ha":261,"o":"m 108 726 l 53 726 l 53 81 b 53 68 55 57 60 46 b 65 35 71 25 79 17 b 87 9 96 3 107 -2 b 118 -7 130 -9 142 -9 b 157 -9 171 -6 184 2 b 197 9 208 18 217 31 l 171 61 b 164 51 154 46 142 46 b 133 46 125 50 118 57 b 111 64 108 72 108 81 z"},"8":{"x_min":0,"x_max":556,"ha":556,"o":"m 261 666 b 232 666 210 662 185 653 b 157 643 141 631 127 618 b 109 602 97 584 89 565 b 80 544 76 523 76 500 b 76 464 86 441 100 422 b 113 404 137 383 157 372 b 142 361 136 356 117 339 b 102 326 90 314 79 298 b 71 287 58 266 51 247 b 44 228 40 207 40 182 b 40 154 45 128 54 105 b 63 82 77 60 96 42 b 114 25 139 9 166 -1 b 194 -11 227 -16 264 -16 b 301 -16 334 -11 362 -1 b 389 9 410 22 431 42 b 447 58 461 75 473 104 b 483 129 487 150 487 180 b 487 209 483 230 476 248 b 470 263 460 282 446 298 b 436 309 421 324 405 335 b 389 346 363 359 358 361 b 368 367 382 378 390 385 b 400 394 413 407 420 417 b 426 425 437 443 442 456 b 448 472 450 489 450 503 b 450 524 445 545 437 564 b 428 586 415 602 400 616 b 385 630 367 643 340 653 b 318 661 294 666 261 666 z m 290 386 l 279 389 l 270 392 l 224 407 b 208 411 190 420 181 426 b 168 435 159 442 150 456 b 142 468 138 483 138 500 b 138 532 151 561 172 580 b 195 601 228 611 263 611 b 302 611 333 599 354 580 b 377 559 388 530 388 499 b 388 469 378 451 362 433 b 344 412 316 391 303 382 z m 207 343 l 213 348 l 235 342 b 265 334 272 332 303 321 b 339 308 347 304 364 292 b 384 278 398 264 408 248 b 418 232 425 213 425 184 b 425 145 412 107 386 80 b 361 54 321 38 263 38 b 205 38 168 54 142 80 b 117 105 102 142 102 182 b 102 197 104 216 112 234 b 117 246 133 271 137 276 b 142 282 160 303 171 312 z"},"\\":{"x_min":0,"x_max":342,"ha":342,"o":"m 297 -70 l 78 750 l 15 750 l 233 -70 z"},"e":{"x_min":0,"x_max":522,"ha":522,"o":"m 425 90 b 400 77 374 65 349 56 b 324 47 297 42 269 42 b 217 42 178 55 151 82 b 124 109 107 148 101 200 l 219 200 b 247 200 274 203 301 208 b 327 213 350 222 371 234 b 391 246 407 262 420 282 b 433 302 439 327 439 356 b 439 379 434 401 425 420 b 415 439 402 455 386 468 b 369 481 350 491 328 498 b 306 505 283 508 258 508 b 225 508 196 501 169 486 b 142 472 120 453 101 429 b 82 405 67 377 57 346 b 46 315 41 282 41 247 b 41 162 60 97 98 54 b 135 11 192 -10 269 -10 b 305 -10 339 -4 370 7 b 401 18 428 32 451 48 z m 98 252 b 98 278 102 303 109 328 b 117 353 128 375 142 394 b 156 413 173 429 192 441 b 212 453 234 459 258 459 b 295 459 324 450 347 432 b 370 413 382 404 382 356 b 382 344 380 332 376 320 b 372 307 364 296 352 286 b 340 276 323 268 302 262 b 281 255 253 252 219 252 z"},"b":{"x_min":0,"x_max":542,"ha":542,"o":"m 109 726 l 54 726 l 54 10 b 71 5 94 0 123 -4 b 152 -8 190 -10 239 -10 b 274 -10 306 -3 335 10 b 364 23 388 42 409 65 b 429 88 445 116 456 147 b 467 179 472 214 472 251 b 472 287 467 320 458 351 b 449 382 435 410 417 433 b 398 456 376 475 350 488 b 323 501 293 508 259 508 b 226 508 197 501 171 488 b 145 475 132 468 109 433 z m 109 51 l 109 328 b 111 349 117 368 127 384 b 136 400 148 413 163 424 b 177 435 193 443 210 448 b 227 453 243 456 259 456 b 285 456 308 450 327 438 b 346 427 363 411 376 392 b 389 373 398 351 405 326 b 412 301 415 288 415 248 b 415 217 411 189 402 164 b 394 139 382 117 366 99 b 351 81 332 67 310 57 b 289 47 265 42 238 42 b 210 42 184 43 161 45 z"},"%":{"x_min":0,"x_max":737,"ha":737,"o":"m 32 556 b 32 536 36 517 43 499 b 50 481 59 465 72 452 b 84 438 98 427 114 420 b 131 412 149 408 168 408 b 187 408 204 412 221 420 b 238 427 252 438 265 452 b 278 465 287 481 294 499 b 301 517 305 526 305 556 l 305 563 b 305 583 301 602 294 620 b 287 638 278 654 265 668 b 252 681 238 692 221 700 b 204 707 187 711 168 711 b 149 711 131 707 114 700 b 98 692 84 681 72 668 b 59 654 50 638 43 620 b 36 602 32 583 32 563 z m 255 556 b 255 543 253 530 248 518 b 243 506 237 496 229 487 b 222 478 213 471 202 466 b 191 461 180 458 168 458 b 156 458 145 461 134 466 b 123 471 114 478 106 487 b 99 496 93 506 88 518 b 83 530 81 543 81 556 l 81 563 b 81 576 83 589 88 601 b 93 613 99 624 106 633 b 114 642 123 649 134 654 b 145 659 156 661 168 661 b 180 661 191 659 202 654 b 213 649 222 642 229 633 b 237 624 243 613 248 601 b 253 589 255 583 255 563 z m 268 0 l 486 653 l 428 653 l 209 0 z m 407 138 b 407 118 410 99 417 81 b 424 63 434 47 446 34 b 459 20 473 9 489 1 b 506 -6 524 -10 543 -10 b 562 -10 579 -6 596 1 b 613 9 627 20 640 34 b 653 47 662 63 669 81 b 676 99 680 108 680 138 l 680 145 b 680 165 676 184 669 202 b 662 220 653 236 640 250 b 627 263 613 274 596 282 b 579 289 562 293 543 293 b 524 293 506 289 489 282 b 473 274 459 263 446 250 b 434 236 424 220 417 202 b 410 184 407 165 407 145 z m 630 138 b 630 125 628 112 623 100 b 618 88 612 78 604 69 b 597 60 588 53 577 48 b 566 43 555 40 543 40 b 531 40 520 43 509 48 b 498 53 489 60 481 69 b 474 78 468 88 463 100 b 458 112 456 125 456 138 l 456 145 b 456 158 458 171 463 183 b 468 195 474 206 481 215 b 489 224 498 231 509 236 b 520 241 531 243 543 243 b 555 243 566 241 577 236 b 588 231 597 224 604 215 b 612 206 618 195 623 183 b 628 171 630 165 630 145 z"},"m":{"x_min":0,"x_max":896,"ha":896,"o":"m 47 472 b 74 445 87 406 87 353 l 87 0 l 142 0 l 142 358 b 149 373 157 387 168 399 b 179 411 191 421 204 430 b 217 439 230 445 244 450 b 258 454 272 456 285 456 b 318 456 343 447 361 428 b 378 409 387 378 387 336 l 387 0 l 442 0 l 442 357 b 477 423 525 456 586 456 b 618 456 643 448 660 431 b 677 414 686 387 688 350 l 688 79 b 688 54 697 32 714 15 b 731 -2 753 -11 778 -11 b 793 -11 807 -8 820 -1 b 833 7 843 16 852 29 l 807 59 b 799 49 789 44 778 44 b 769 44 761 48 754 55 b 747 62 743 70 743 79 l 743 351 b 743 401 729 440 700 467 b 671 494 633 508 585 508 b 557 508 529 500 502 485 b 474 470 450 447 431 415 b 420 447 402 470 377 485 b 352 500 324 508 291 508 b 259 508 230 500 203 485 b 176 470 153 448 135 417 b 131 434 125 450 117 465 b 108 480 96 494 81 505 z"},"#":{"x_min":0,"x_max":596,"ha":596,"o":"m 422 484 l 422 637 l 366 637 l 366 484 l 199 484 l 199 637 l 143 637 l 143 484 l 29 484 l 29 432 l 143 432 l 143 236 l 29 236 l 29 184 l 145 184 l 145 30 l 199 30 l 199 184 l 368 184 l 368 30 l 422 30 l 422 184 l 536 184 l 536 236 l 422 236 l 422 432 l 536 432 l 536 484 z m 199 432 l 366 432 l 366 236 l 199 236 z"},",":{"x_min":0,"x_max":192,"ha":192,"o":"m 55 32 b 57 6 55 -14 51 -27 b 46 -40 37 -54 24 -67 l 58 -100 b 83 -82 100 -63 108 -42 b 116 -21 120 4 120 32 l 120 52 b 120 61 117 69 111 75 b 105 82 97 85 88 85 b 79 85 71 82 65 75 b 59 69 56 61 55 52 z"},"n":{"x_min":0,"x_max":609,"ha":609,"o":"m 30 472 b 57 445 70 406 70 353 l 70 0 l 125 0 l 125 355 b 148 387 172 412 197 430 b 222 447 252 456 288 456 b 326 456 354 447 373 428 b 392 409 401 378 401 336 l 401 77 b 401 52 410 30 427 13 b 444 -4 466 -13 491 -13 b 506 -13 520 -10 533 -3 b 546 5 556 14 565 27 l 520 57 b 512 47 502 42 491 42 b 482 42 474 46 467 53 b 460 60 456 68 456 77 l 456 362 b 453 409 439 445 412 470 b 386 495 345 508 288 508 b 219 508 162 476 119 413 b 116 430 110 447 101 463 b 92 480 80 494 64 505 z"},"h":{"x_min":0,"x_max":593,"ha":593,"o":"m 109 729 l 54 729 l 54 3 l 109 3 l 109 358 b 132 390 156 415 181 433 b 206 450 236 459 272 459 b 309 459 337 450 356 432 b 375 414 385 386 385 347 l 385 82 b 385 57 394 36 411 19 b 428 2 449 -7 474 -7 b 506 -7 531 6 549 32 l 503 63 b 497 53 487 48 474 48 b 465 48 457 51 450 58 b 443 65 440 73 440 82 l 440 350 b 440 402 427 442 400 469 b 373 497 331 511 272 511 b 240 511 210 504 183 489 b 155 475 130 453 109 423 z"},"z":{"x_min":0,"x_max":531,"ha":531,"o":"m 423 485 l 423 498 l 72 498 l 72 446 l 329 446 l 34 13 l 77 -20 l 119 41 l 218 9 b 237 2 258 -3 279 -7 b 300 -11 323 -13 348 -13 b 386 -13 405 -13 463 30 l 438 74 b 405 51 375 39 348 39 b 325 39 305 41 287 44 b 269 47 250 52 230 59 l 150 87 z"},"B":{"x_min":0,"x_max":645,"ha":645,"o":"m 118 695 b 101 695 89 691 79 687 b 63 680 56 674 45 663 b 34 652 28 642 23 630 b 19 620 15 608 15 590 l 71 590 b 71 605 77 616 86 625 b 95 634 107 639 120 639 l 139 639 l 139 1 l 192 -5 b 212 -7 223 -8 255 -9 b 283 -10 321 -10 323 -10 b 370 -10 405 -7 438 4 b 465 13 490 26 511 44 b 530 60 547 83 557 106 b 568 131 573 158 573 186 b 573 221 565 255 545 287 b 528 314 504 339 468 358 l 452 364 b 449 365 444 365 436 368 l 451 373 b 458 375 461 376 466 379 b 490 393 508 410 522 434 b 533 453 542 476 542 514 b 542 542 537 566 527 588 b 517 610 507 625 486 644 b 465 663 448 673 422 682 b 396 691 369 695 340 695 z m 200 639 l 354 639 b 391 637 426 624 448 604 b 471 583 482 550 482 515 b 482 476 469 445 443 423 b 418 402 381 390 339 390 l 251 390 l 251 335 l 346 335 b 369 335 391 332 414 324 b 438 316 455 304 466 294 b 483 279 494 264 502 247 b 511 227 514 208 514 189 b 514 147 500 110 468 83 b 438 58 397 45 317 45 b 295 45 287 46 265 47 l 200 50 z"},"K":{"x_min":0,"x_max":643,"ha":643,"o":"m 414 684 b 385 623 356 562 337 529 b 319 497 285 443 269 423 b 257 408 242 395 223 386 b 208 379 189 373 158 372 l 115 372 l 115 684 l 54 684 l 54 1 l 117 1 l 117 313 b 128 312 141 312 143 312 b 172 312 197 315 226 324 l 433 31 b 442 18 455 7 467 1 b 475 -3 491 -8 509 -8 b 521 -8 531 -6 544 0 b 557 6 564 11 573 20 b 580 27 587 37 592 49 b 597 61 599 73 599 84 l 542 84 b 542 74 539 66 532 59 b 525 52 517 49 508 49 b 495 49 486 55 480 64 l 280 347 b 300 363 321 389 334 408 b 350 432 370 463 386 492 b 396 510 426 565 438 588 b 454 618 441 599 489 684 z"},"R":{"x_min":0,"x_max":720,"ha":720,"o":"m 117 684 b 100 684 88 680 78 676 b 62 669 55 663 44 652 b 33 641 27 631 22 619 b 18 609 14 597 14 579 l 70 579 b 70 594 76 605 85 614 b 94 623 106 628 119 628 l 138 628 l 138 0 l 199 0 l 199 628 l 349 628 b 369 628 390 623 404 616 b 416 610 431 600 445 584 b 458 569 466 553 472 535 b 478 516 481 497 481 476 b 481 433 468 397 442 371 b 418 347 381 332 338 332 l 251 332 l 251 276 b 288 273 307 267 329 251 b 351 235 371 212 385 193 l 511 29 b 531 3 556 -10 586 -10 b 607 -10 623 -4 637 6 b 651 15 661 28 666 38 b 673 51 676 65 676 79 l 619 81 b 619 68 619 62 605 53 b 599 49 592 47 585 47 b 572 47 564 52 558 61 l 428 231 l 407 257 b 402 263 385 277 380 280 b 377 282 372 284 369 285 l 356 289 l 381 290 b 410 292 433 300 451 310 b 469 320 486 334 501 353 b 513 368 524 389 531 411 b 537 430 541 451 541 479 b 541 506 537 528 528 555 b 519 582 508 602 492 621 b 475 641 456 656 433 667 b 412 677 387 684 353 684 z"},"T":{"x_min":0,"x_max":626,"ha":626,"o":"m 577 627 l 577 684 l 113 684 b 101 684 90 682 79 677 b 68 672 59 665 51 657 b 43 649 37 640 32 629 b 27 618 25 606 25 594 l 82 594 b 82 603 85 611 92 618 b 99 624 107 627 116 627 l 277 627 l 277 0 l 338 0 l 338 627 z"},"P":{"x_min":0,"x_max":609,"ha":609,"o":"m 117 684 b 100 684 88 680 78 676 b 62 669 55 663 44 652 b 33 641 27 631 22 619 b 18 609 14 597 14 579 l 70 579 b 70 594 76 605 85 614 b 94 623 106 628 119 628 l 140 628 l 140 -1 l 201 -1 l 201 628 l 333 628 b 379 627 417 610 440 587 b 466 561 480 523 480 476 b 480 452 476 430 470 412 b 462 388 451 373 440 360 b 423 340 408 332 395 326 b 374 316 356 313 335 313 l 242 317 l 242 262 l 246 262 b 256 261 255 260 270 259 b 284 259 288 258 311 258 b 361 258 391 263 417 274 b 443 285 466 304 482 321 b 498 338 512 358 524 390 b 533 414 539 440 539 475 b 539 504 535 532 526 558 b 518 581 506 604 488 624 b 469 645 446 660 428 668 b 408 677 380 684 347 684 z"},"|":{"x_min":0,"x_max":204,"ha":204,"o":"m 115 -70 l 115 750 l 54 750 l 54 -70 z"},"t":{"x_min":0,"x_max":365,"ha":365,"o":"m 107 498 l 107 624 l 52 624 l 52 143 b 52 112 56 87 63 68 b 70 48 79 32 91 20 b 102 9 116 1 131 -4 b 146 -8 162 -10 178 -10 b 210 -10 237 -3 259 12 b 281 27 299 46 313 71 l 272 101 b 261 82 247 68 229 58 b 211 47 195 42 182 42 b 172 42 162 44 153 47 b 144 50 136 56 129 63 b 122 71 117 81 113 94 b 109 107 107 124 107 143 l 107 443 l 265 443 l 265 498 z"},"M":{"x_min":0,"x_max":1011,"ha":1011,"o":"m 951 0 l 811 684 l 754 684 l 543 113 l 532 74 l 521 113 l 312 684 l 253 684 l 127 71 b 122 56 112 49 96 49 b 89 49 84 51 79 55 b 74 59 70 64 67 69 l 15 48 b 22 31 34 17 49 8 b 64 -2 81 -7 99 -7 b 118 -7 136 0 153 14 b 169 27 179 44 183 64 l 283 561 l 289 601 l 300 561 l 502 0 l 561 0 l 764 562 l 775 601 l 781 563 l 894 0 z"},"g":{"x_min":0,"x_max":542,"ha":542,"o":"m 459 499 l 406 499 l 345 506 b 321 508 297 509 283 509 b 245 509 214 502 184 489 b 155 476 132 459 109 435 b 87 412 71 388 59 357 b 47 326 41 296 41 257 b 41 226 45 197 53 166 b 61 135 71 111 87 86 b 99 67 115 45 139 27 b 160 11 183 0 208 -6 b 193 -21 183 -35 174 -59 b 167 -78 162 -97 162 -122 b 162 -144 166 -164 172 -181 b 178 -198 187 -216 199 -231 b 211 -246 226 -258 244 -267 b 262 -276 280 -281 303 -281 b 321 -281 339 -278 356 -273 b 376 -267 391 -259 406 -246 b 422 -232 436 -213 444 -195 b 454 -173 459 -145 459 -112 z m 311 456 l 379 452 l 406 450 l 406 179 b 406 169 401 153 394 139 b 385 122 367 100 346 81 b 333 71 312 59 303 54 b 286 45 266 42 249 42 b 218 42 197 51 181 62 b 165 73 149 89 139 103 b 126 121 113 147 105 174 b 99 194 94 225 94 256 b 94 283 98 308 107 332 b 114 350 124 371 143 394 b 159 413 178 428 201 439 b 224 450 249 456 278 456 z m 406 -116 b 405 -129 403 -143 400 -156 b 396 -171 391 -183 385 -192 b 379 -201 369 -211 355 -218 b 343 -224 327 -228 308 -228 b 294 -228 282 -226 270 -220 b 260 -215 251 -207 242 -197 b 234 -188 227 -178 222 -164 b 217 -151 215 -138 215 -123 b 215 -108 217 -95 221 -84 b 225 -73 231 -63 239 -54 b 247 -45 257 -36 269 -28 l 308 -2 b 327 4 345 14 360 27 b 375 40 391 54 406 69 z"},"j":{"x_min":0,"x_max":244,"ha":244,"o":"m 133 708 b 110 708 91 689 91 665 b 91 642 110 623 133 623 b 157 623 176 642 176 665 b 176 689 157 708 133 708 z m 164 501 l 109 501 l 109 -170 b 109 -179 106 -188 99 -195 b 92 -202 84 -205 75 -205 b 62 -205 53 -200 46 -190 l 0 -220 b 9 -233 20 -243 33 -250 b 46 -257 60 -260 75 -260 b 87 -260 99 -258 110 -253 b 121 -248 130 -242 138 -234 b 146 -226 152 -217 157 -206 b 162 -195 164 -183 164 -170 z"},"i":{"x_min":0,"x_max":237,"ha":237,"o":"m 68 708 b 45 708 26 689 26 665 b 26 642 45 623 68 623 b 92 623 111 642 111 665 b 111 689 92 708 68 708 z m 98 500 l 43 500 l 43 80 b 43 55 52 33 69 16 b 86 -1 107 -10 132 -10 b 147 -10 162 -7 175 0 b 188 7 198 17 207 30 l 161 60 b 154 50 145 45 132 45 b 123 45 115 48 108 55 b 101 62 98 71 98 80 z"},"y":{"x_min":0,"x_max":554,"ha":554,"o":"m 30 462 b 43 453 55 441 67 427 b 79 413 85 400 85 389 l 85 138 b 85 96 97 63 120 38 b 143 13 178 -2 224 -7 b 215 -13 207 -21 200 -31 b 194 -41 189 -52 185 -64 b 181 -75 178 -87 176 -99 b 175 -110 174 -120 174 -129 b 174 -148 177 -167 184 -186 b 191 -205 200 -221 212 -236 b 225 -251 240 -263 257 -272 b 274 -281 294 -285 315 -285 b 334 -285 352 -282 371 -277 b 390 -271 406 -262 421 -249 b 436 -236 447 -218 456 -197 b 465 -175 470 -148 470 -117 l 470 500 l 416 500 l 416 171 b 415 160 413 152 410 145 l 401 126 b 380 100 358 80 335 66 b 312 51 285 44 253 44 b 215 44 187 54 168 73 b 149 92 140 122 140 164 l 140 389 b 140 402 137 415 131 427 b 126 439 119 450 111 461 b 103 471 94 480 85 488 b 76 496 67 503 60 508 z m 417 59 l 417 -121 b 417 -153 408 -180 391 -201 b 374 -222 349 -232 315 -232 b 302 -232 289 -229 278 -224 b 267 -218 258 -210 250 -201 b 243 -191 237 -180 233 -167 b 229 -154 227 -141 227 -128 b 227 -100 233 -78 245 -61 b 258 -44 277 -29 303 -15 l 352 11 b 371 20 389 33 406 49 z"},"@":{"x_min":0,"x_max":703,"ha":703,"o":"m 548 -20 l 534 25 b 526 21 515 17 502 12 b 489 8 474 4 457 0 b 440 -3 421 -6 401 -9 b 381 -11 360 -12 339 -12 b 303 -12 270 -6 240 5 b 210 17 184 34 163 55 b 142 76 125 102 113 133 b 101 164 95 198 95 235 b 95 274 101 309 112 342 b 123 375 140 403 161 426 b 182 449 208 468 238 481 b 268 494 302 501 339 501 b 374 501 407 495 437 484 b 466 473 492 456 514 435 b 535 414 552 389 564 358 b 576 328 582 294 582 257 b 582 235 579 216 574 200 b 569 184 562 171 553 161 b 545 151 536 144 526 139 b 516 134 507 132 498 132 b 484 132 471 136 458 145 b 445 154 437 170 433 194 l 433 401 l 389 401 b 380 401 369 402 357 403 b 345 405 334 406 323 406 b 304 406 286 402 269 394 b 252 386 238 375 225 362 b 213 349 203 333 196 315 b 189 298 185 279 185 260 b 185 237 188 216 194 197 b 201 178 209 161 220 146 b 231 132 244 121 259 113 b 274 105 291 101 309 101 b 346 101 377 116 402 147 b 416 107 448 87 498 87 b 515 87 531 90 548 97 b 565 104 579 115 592 129 b 605 143 615 160 623 181 b 631 202 635 227 635 255 b 635 298 628 338 614 374 b 600 410 580 441 554 466 b 528 492 497 512 460 526 b 424 541 384 548 339 548 b 293 548 252 540 215 525 b 178 509 146 487 121 459 b 95 431 75 398 61 359 b 48 320 41 278 41 232 b 41 188 48 148 62 113 b 77 77 97 46 123 20 b 149 -5 180 -25 217 -39 b 254 -53 294 -60 339 -60 b 360 -60 380 -59 400 -56 b 421 -53 440 -49 459 -45 b 478 -41 495 -37 510 -32 z m 383 351 l 383 216 b 382 213 380 207 377 200 b 374 193 370 186 364 179 b 358 172 350 165 341 159 b 332 154 322 151 309 151 b 296 151 284 154 275 160 b 266 167 258 175 252 185 b 246 196 242 207 239 220 b 236 233 235 240 235 260 b 235 288 244 311 261 329 b 279 347 301 356 326 356 b 334 356 343 355 354 354 z"},".":{"x_min":0,"x_max":206,"ha":206,"o":"m 89 81 b 66 81 47 62 47 38 b 47 15 66 -4 89 -4 b 113 -4 132 15 132 38 b 132 62 113 81 89 81 z"},"p":{"x_min":0,"x_max":558,"ha":558,"o":"m 30 472 b 57 445 70 406 70 353 l 70 -261 l 125 -261 l 125 -1 b 140 -3 159 -5 181 -7 b 202 -9 227 -10 255 -10 b 290 -10 322 -3 351 10 b 380 23 404 42 425 65 b 445 88 461 116 472 147 b 483 179 488 214 488 251 b 488 287 483 320 474 351 b 465 382 451 410 433 433 b 414 456 392 475 366 488 b 339 501 309 508 275 508 b 239 508 207 501 180 486 b 152 471 138 463 117 421 b 113 438 107 453 99 467 b 90 481 79 494 64 505 z m 125 51 l 125 328 b 127 349 133 368 143 384 b 152 400 164 413 179 424 b 193 435 209 443 226 448 b 243 453 259 456 275 456 b 301 456 324 450 343 439 b 362 427 379 412 392 393 b 405 374 414 351 421 326 b 428 301 431 288 431 248 b 431 217 427 189 418 164 b 410 139 398 117 382 99 b 367 81 348 67 326 57 b 305 47 281 42 254 42 b 226 42 200 43 177 46 z"},"X":{"x_min":0,"x_max":668,"ha":668,"o":"m 336 351 l 546 684 l 475 684 l 294 395 l 112 684 l 43 684 l 254 351 l 45 0 l 116 0 l 297 306 l 437 65 b 444 52 451 41 458 32 b 464 23 471 15 478 10 b 485 4 493 0 502 -3 b 511 -6 521 -7 533 -7 b 546 -7 557 -5 568 0 b 579 5 588 11 596 19 b 604 27 611 36 616 47 b 621 57 623 68 624 80 l 566 83 b 565 74 561 66 555 60 b 549 54 542 51 533 51 b 521 51 512 56 506 65 z"},"*":{"x_min":0,"x_max":378,"ha":378,"o":"m 198 577 l 205 694 l 145 694 l 151 578 l 46 619 l 27 562 l 133 534 l 65 452 l 113 416 l 175 512 l 236 418 l 285 452 l 218 533 l 322 562 l 305 619 z"},"Y":{"x_min":0,"x_max":632,"ha":632,"o":"m 73 605 b 74 614 77 621 84 626 b 91 632 98 635 106 635 b 118 635 128 629 135 618 l 311 297 l 308 0 l 374 0 l 374 299 l 588 685 l 518 685 l 341 366 l 187 646 b 168 678 141 694 106 694 b 83 694 62 686 44 670 b 26 654 16 634 14 611 z"},"c":{"x_min":0,"x_max":520,"ha":520,"o":"m 425 94 b 400 81 374 69 349 60 b 324 51 297 46 269 46 b 244 46 222 50 201 58 b 180 65 161 77 146 93 b 131 109 119 129 110 153 b 101 176 97 204 97 236 b 97 263 100 291 107 318 b 114 345 124 369 137 391 b 150 412 167 430 187 443 b 207 456 231 463 258 463 b 295 463 324 454 347 436 b 370 417 382 392 382 360 l 439 360 b 439 383 434 405 424 424 b 415 443 402 459 385 472 b 369 485 350 495 328 502 b 306 509 283 512 258 512 b 225 512 196 505 169 490 b 142 476 119 457 100 433 b 81 409 67 381 56 350 b 46 319 41 286 41 251 b 41 167 60 103 97 59 b 135 16 192 -6 269 -6 b 305 -6 338 0 369 11 b 400 22 428 36 451 52 z"},"!":{"x_min":0,"x_max":189,"ha":189,"o":"m 107 159 l 117 704 l 41 704 l 51 159 z m 78 95 b 51 95 29 73 29 46 b 29 21 51 -1 78 -1 b 105 -1 126 21 126 46 b 126 73 105 95 78 95 z"},"/":{"x_min":0,"x_max":342,"ha":342,"o":"m 79 -70 l 297 750 l 234 750 l 15 -70 z"},"[":{"x_min":0,"x_max":335,"ha":335,"o":"m 292 693 l 292 750 l 54 750 l 54 -174 l 292 -174 l 292 -117 l 115 -117 l 115 693 z"},"6":{"x_min":0,"x_max":571,"ha":571,"o":"m 430 649 b 371 649 321 638 271 615 b 224 593 186 566 147 524 b 112 487 85 443 65 392 b 49 351 35 302 35 242 b 35 191 45 149 56 120 b 70 82 92 52 110 34 b 131 12 161 -8 187 -19 b 213 -30 245 -37 278 -37 b 309 -37 340 -31 368 -19 b 396 -7 416 6 440 30 b 461 51 477 74 489 102 b 501 130 507 158 507 189 b 507 222 500 254 489 280 b 478 306 459 332 439 352 b 419 372 396 389 364 402 b 339 412 311 419 277 419 b 244 419 214 412 181 396 b 152 382 127 365 99 331 b 133 428 174 489 233 533 b 292 577 358 596 430 596 z m 278 366 b 300 366 323 362 345 353 b 371 343 391 326 401 316 b 420 298 433 277 440 260 b 448 241 454 217 454 191 b 454 167 449 143 441 124 b 433 105 419 84 403 68 b 387 52 368 39 347 30 b 322 19 298 16 278 16 b 261 16 244 18 223 25 b 207 30 187 39 173 49 b 159 59 144 75 131 92 b 116 111 110 125 102 152 b 100 163 99 173 99 185 b 99 213 104 235 114 258 b 124 280 133 295 154 315 b 169 329 184 342 211 353 b 233 362 256 366 278 366 z"},"r":{"x_min":0,"x_max":394,"ha":394,"o":"m 40 472 b 67 445 80 406 80 353 l 80 0 l 135 0 l 135 357 b 152 388 172 412 194 429 b 215 446 240 455 268 455 b 279 455 290 455 299 454 b 308 453 319 451 334 448 l 334 500 l 309 505 b 299 507 288 508 275 508 b 241 508 213 501 190 486 b 167 471 146 448 129 417 b 125 434 119 451 110 466 b 101 481 89 494 74 505 z"},"2":{"x_min":0,"x_max":538,"ha":538,"o":"m 45 517 l 92 493 l 95 499 l 109 531 b 116 547 128 562 136 570 b 149 584 169 597 183 603 b 199 610 227 618 258 618 b 298 618 331 605 355 581 b 376 560 391 526 391 488 b 391 459 382 432 365 407 b 346 379 317 351 302 338 b 280 319 254 300 217 273 b 190 253 161 229 134 202 b 114 182 86 150 69 118 b 52 86 44 49 44 13 l 44 0 l 480 0 l 480 57 l 108 57 b 116 89 128 110 147 133 b 162 151 185 174 214 198 b 238 218 281 249 293 258 b 319 277 344 296 368 320 b 385 337 409 364 425 393 b 441 422 447 451 447 487 b 447 501 446 520 438 549 b 431 576 422 592 408 608 b 391 627 376 638 349 649 b 322 660 295 665 255 665 b 224 665 205 662 184 656 b 166 651 145 642 131 633 b 117 624 99 608 93 601 b 88 595 74 576 69 565 z"},"{":{"x_min":0,"x_max":323,"ha":323,"o":"m 256 750 b 236 744 216 738 196 733 b 175 728 157 720 141 711 b 124 702 111 689 100 672 b 89 655 84 633 84 605 b 84 586 85 565 87 543 b 89 521 91 499 94 478 l 101 420 b 103 402 104 388 104 377 b 104 366 101 357 96 350 b 90 343 83 336 75 331 b 66 326 57 323 48 320 b 38 318 29 317 21 316 l 21 261 b 30 260 39 258 49 255 b 58 253 67 250 76 245 b 84 240 91 234 96 227 b 101 220 104 211 104 200 b 104 189 103 175 101 157 l 94 98 b 91 77 89 56 87 34 b 85 12 84 -9 84 -28 b 84 -56 89 -78 100 -95 b 111 -112 124 -125 141 -134 b 157 -143 175 -151 196 -156 b 216 -161 236 -167 256 -173 l 270 -127 b 250 -122 232 -117 217 -112 b 201 -107 188 -101 177 -94 b 166 -87 158 -78 153 -68 b 148 -58 145 -45 145 -30 b 145 -18 146 -2 148 17 l 155 78 b 158 99 160 121 162 142 b 164 164 165 183 165 200 b 165 215 162 227 157 238 b 152 249 146 257 139 264 b 132 271 124 277 117 281 b 110 284 104 287 99 288 l 118 297 b 125 300 133 306 140 313 b 147 320 153 328 158 339 b 163 349 165 362 165 377 b 165 394 164 413 162 434 b 160 455 158 477 155 499 l 148 560 b 146 579 145 595 145 607 b 145 622 148 635 153 645 b 158 655 166 664 177 671 b 188 678 201 684 217 689 b 232 694 250 699 270 704 z"},"9":{"x_min":0,"x_max":570,"ha":570,"o":"m 112 -37 l 115 -37 b 177 -37 227 -24 272 -3 b 319 19 358 48 395 89 b 430 128 458 172 477 220 b 497 271 505 321 505 377 b 505 425 499 457 485 493 b 469 533 453 554 431 577 b 408 601 383 619 354 631 b 327 642 294 649 262 649 b 232 649 201 643 173 631 b 140 617 120 601 101 582 b 80 561 63 536 52 510 b 40 482 34 452 34 421 b 34 392 39 363 53 331 b 65 303 81 280 103 259 b 122 241 144 223 176 210 b 201 200 232 193 261 193 b 277 193 295 195 314 201 b 330 206 350 215 363 222 b 378 230 393 240 408 252 b 419 261 432 272 446 287 b 430 240 415 208 390 171 b 367 137 346 112 313 86 b 282 61 251 45 219 34 b 187 23 154 16 112 16 z m 262 596 b 284 596 304 592 317 588 b 338 582 357 570 368 562 b 385 550 399 535 410 520 b 423 502 431 485 439 460 b 441 448 442 439 442 427 b 442 398 436 375 428 356 b 417 330 404 314 388 298 b 372 282 356 270 332 260 b 311 251 289 246 263 246 b 239 246 218 250 194 260 b 169 270 152 284 139 297 b 125 311 112 326 101 352 b 93 371 87 393 87 421 b 87 440 90 465 101 490 b 110 510 122 528 138 544 b 154 560 173 573 194 582 b 215 591 237 596 262 596 z"}," ":{"x_min":0,"x_max":291,"ha":291,"o":""},"I":{"x_min":0,"x_max":204,"ha":204,"o":"m 115 0 l 115 684 l 54 684 l 54 0 z"},"H":{"x_min":0,"x_max":700,"ha":700,"o":"m 66 613 b 73 624 83 627 92 627 b 101 627 108 624 114 618 b 120 612 123 605 123 596 l 123 0 l 185 0 l 185 327 l 554 327 l 554 0 l 615 0 l 615 684 l 554 684 l 554 384 l 185 384 l 185 596 b 185 607 183 619 178 631 b 174 640 168 651 157 662 b 150 669 139 677 127 682 b 118 686 105 689 91 689 b 59 689 32 674 14 648 z"},"4":{"x_min":0,"x_max":537,"ha":537,"o":"m 91 183 l 291 660 l 224 660 l 20 176 l 20 126 l 338 126 l 338 -3 l 400 -3 l 400 126 l 484 126 l 484 183 l 400 183 l 400 405 l 338 405 l 338 183 z"},"~":{"x_min":0,"x_max":529,"ha":529,"o":"m 155 337 b 120 334 87 320 54 293 l 88 252 b 114 273 141 284 169 284 b 188 284 211 279 237 269 b 268 256 297 250 324 250 l 338 250 b 373 253 406 267 439 294 l 405 335 b 379 314 352 303 324 303 b 303 303 281 308 256 318 b 224 331 194 337 167 337 z"},"D":{"x_min":0,"x_max":805,"ha":805,"o":"m 118 690 b 101 690 89 686 79 682 b 64 676 53 667 45 659 b 32 647 26 636 22 626 b 16 611 14 599 14 585 l 70 585 b 70 597 73 607 83 618 b 92 627 101 632 114 634 l 139 634 l 139 0 l 159 -3 l 186 -5 b 203 -6 193 -6 261 -8 b 302 -9 291 -10 334 -10 b 447 -10 486 -3 531 16 b 575 35 611 62 640 92 b 671 124 694 160 710 203 b 727 249 734 297 734 342 b 734 391 726 435 712 474 b 696 519 675 551 649 580 b 619 614 588 636 549 655 b 508 675 470 685 417 690 z m 200 634 l 407 634 b 451 632 491 621 518 609 b 547 596 579 574 602 549 b 623 526 641 497 655 458 b 668 422 674 386 674 343 b 674 297 667 257 654 221 b 639 179 618 151 597 129 b 571 102 543 81 507 66 b 471 51 432 45 355 45 b 301 45 283 48 275 48 b 269 48 268 46 200 50 z"},"^":{"x_min":0,"x_max":454,"ha":454,"o":"m 397 363 l 222 615 l 202 615 l 27 363 l 75 330 l 210 524 l 347 328 z"},"0":{"x_min":0,"x_max":654,"ha":654,"o":"m 312 663 b 271 663 233 655 200 638 b 167 621 138 597 115 567 b 92 536 74 501 61 460 b 48 419 41 374 41 326 b 41 279 48 235 61 194 b 74 153 92 117 115 87 b 138 57 167 33 200 16 b 233 -1 271 -10 312 -10 b 353 -10 390 -2 424 16 b 457 33 486 56 509 86 b 532 116 551 152 564 193 b 577 234 583 278 583 326 b 583 374 577 419 564 460 b 551 501 532 536 509 566 b 486 596 457 620 424 637 b 390 654 373 663 312 663 z m 313 608 b 344 608 372 601 398 588 b 423 574 445 555 464 530 b 482 505 496 475 506 440 b 516 405 521 367 521 326 b 521 285 516 247 506 212 b 496 177 482 148 464 123 b 445 98 423 79 398 65 b 372 52 359 45 313 45 b 282 45 253 52 228 65 b 202 79 180 98 162 123 b 143 148 129 178 119 212 b 109 247 104 285 104 326 b 104 368 109 406 119 440 b 129 475 143 504 162 529 b 180 554 202 574 228 587 b 253 601 282 608 313 608 z"},"F":{"x_min":0,"x_max":608,"ha":608,"o":"m 578 627 l 578 683 l 117 683 b 100 683 88 679 78 675 b 62 668 55 662 44 651 b 33 640 27 630 22 618 b 18 608 14 596 14 578 l 70 578 b 70 591 76 605 84 613 b 93 622 106 627 118 627 l 130 627 l 130 -1 l 191 -1 l 191 332 l 458 332 l 458 389 l 191 389 l 191 627 z"},"`":{"x_min":0,"x_max":260,"ha":260,"o":"m 211 601 l 53 726 l 17 677 l 189 567 z"},"k":{"x_min":0,"x_max":584,"ha":584,"o":"m 109 727 l 54 727 l 54 1 l 109 1 l 109 201 l 279 201 l 375 43 b 383 30 394 19 408 12 b 421 5 436 1 451 1 b 476 1 496 10 513 27 b 530 44 539 64 540 87 l 484 90 b 484 81 481 73 474 67 b 467 61 459 58 450 58 b 441 58 432 62 425 69 l 333 216 b 347 224 359 232 370 240 b 381 248 390 258 398 269 b 406 280 412 292 417 307 b 422 322 425 339 426 360 b 425 406 411 442 384 469 b 357 496 318 509 266 509 b 228 509 196 500 171 482 b 145 464 124 440 109 410 z m 111 253 b 111 279 115 304 122 329 b 129 354 139 376 152 395 b 165 414 182 430 201 442 b 220 454 242 460 266 460 b 303 460 329 451 346 433 b 363 414 372 391 374 363 b 372 347 369 334 364 323 b 360 312 354 302 346 293 b 338 284 325 275 306 266 b 287 257 261 253 227 253 z"},"u":{"x_min":0,"x_max":624,"ha":624,"o":"m 30 462 b 43 453 55 441 67 427 b 79 413 85 400 85 389 l 85 138 b 88 91 102 55 129 30 b 155 5 196 -8 253 -8 b 318 -8 372 21 415 78 b 416 53 425 32 442 15 b 459 -2 480 -11 505 -11 b 520 -11 535 -8 548 -1 b 561 7 571 16 580 28 l 534 59 b 527 49 517 44 505 44 b 496 44 488 48 481 55 b 474 62 470 70 470 79 l 470 500 l 416 500 l 416 144 b 392 112 368 87 344 70 b 319 53 289 44 253 44 b 215 44 187 54 168 73 b 149 92 140 122 140 164 l 140 389 b 140 402 137 415 132 427 b 126 439 119 450 111 461 b 103 471 94 480 85 488 b 76 496 67 503 60 508 z"},"]":{"x_min":0,"x_max":336,"ha":336,"o":"m 251 -174 l 251 750 l 13 750 l 13 693 l 190 693 l 190 -117 l 13 -117 l 13 -174 z"},"U":{"x_min":0,"x_max":747,"ha":747,"o":"m 64 616 b 70 625 79 633 95 633 b 103 633 111 631 115 629 b 118 627 124 621 126 618 b 129 614 131 608 131 606 l 132 595 l 132 268 b 132 219 140 186 151 156 b 163 123 181 93 205 68 b 230 42 255 25 290 11 b 320 -1 354 -9 400 -9 b 445 -9 479 -1 509 11 b 547 26 573 47 594 69 b 615 91 633 115 648 156 b 659 186 667 219 667 268 l 667 685 l 606 685 l 606 268 b 606 232 601 203 591 175 b 581 147 568 126 549 106 b 531 87 512 73 485 62 b 458 51 429 46 398 46 b 364 46 339 52 314 62 b 284 74 266 89 250 106 b 231 126 218 147 208 175 b 198 203 193 232 193 268 l 193 595 b 193 606 191 621 186 633 b 180 648 168 662 165 665 b 156 673 144 681 132 686 b 122 690 109 693 96 693 b 79 693 61 688 50 682 b 38 676 22 662 14 650 z"},"o":{"x_min":0,"x_max":609,"ha":609,"o":"m 290 508 b 253 508 219 501 188 488 b 157 475 131 456 110 433 b 88 410 71 382 59 350 b 47 318 41 284 41 247 b 41 210 47 175 59 144 b 71 113 88 86 110 63 b 131 40 157 22 188 9 b 219 -4 253 -10 290 -10 b 327 -10 360 -4 391 10 b 422 23 448 41 470 64 b 491 87 508 114 520 146 b 532 178 538 194 538 250 b 538 287 532 321 520 353 b 508 384 491 412 470 435 b 448 458 422 476 391 489 b 360 502 327 508 290 508 z m 290 456 b 319 456 345 451 369 442 b 392 432 412 418 429 400 b 446 382 459 361 468 336 b 477 311 481 298 481 252 b 481 221 477 192 468 167 b 459 141 446 119 429 101 b 412 82 392 68 369 58 b 345 47 319 42 290 42 b 261 42 234 47 211 57 b 188 67 168 81 151 99 b 134 117 121 139 112 165 b 103 190 98 219 98 250 b 98 281 103 309 112 334 b 121 359 134 381 151 399 b 168 417 188 431 211 441 b 234 451 261 456 290 456 z"},"N":{"x_min":0,"x_max":780,"ha":780,"o":"m 288 559 l 177 684 l 139 684 l 139 85 b 138 76 135 68 128 62 b 121 55 113 52 104 52 b 95 52 87 55 80 62 b 73 69 70 77 70 86 l 14 86 b 14 61 23 40 41 22 b 58 5 79 -4 104 -4 b 116 -4 128 -2 139 3 b 150 8 161 14 170 22 b 179 30 186 39 191 50 b 196 61 199 73 199 85 l 199 584 l 209 563 l 680 0 l 698 0 l 698 683 l 639 683 l 639 129 l 628 151 z"},"+":{"x_min":0,"x_max":432,"ha":432,"o":"m 229 319 l 229 479 l 173 479 l 173 319 l 15 319 l 15 268 l 173 268 l 173 107 l 229 107 l 229 268 l 387 268 l 387 319 z"},"G":{"x_min":0,"x_max":751,"ha":751,"o":"m 612 -178 b 611 -189 607 -196 601 -202 b 595 -208 587 -212 576 -212 b 563 -212 554 -206 548 -197 l 500 -230 b 508 -242 520 -253 533 -260 b 544 -266 558 -271 576 -271 b 587 -271 599 -269 611 -264 b 620 -260 631 -254 642 -243 b 649 -236 657 -225 662 -213 b 667 -201 669 -189 669 -178 l 669 303 l 612 303 l 612 224 b 608 195 603 175 588 146 b 574 119 559 100 539 82 b 516 61 492 48 469 39 b 438 27 410 23 382 23 b 339 23 302 33 273 46 b 240 61 206 85 181 111 b 152 141 130 177 117 208 b 102 244 94 285 94 328 b 94 374 103 414 118 451 b 133 488 153 520 183 552 b 212 583 244 606 280 622 b 318 639 356 647 397 647 b 417 647 436 645 456 641 b 476 637 500 629 511 623 b 526 615 543 603 551 594 b 559 585 566 570 566 555 b 566 544 562 534 557 528 b 553 523 542 517 532 517 b 526 517 519 519 512 524 l 478 481 b 494 469 512 463 532 463 b 559 463 579 474 594 489 b 612 507 620 529 620 556 b 620 583 612 602 599 620 b 583 642 564 655 547 665 b 528 676 505 686 475 693 b 449 699 421 702 395 702 b 345 702 300 691 258 672 b 214 652 178 626 145 591 b 115 559 88 522 68 472 b 50 427 40 379 40 327 b 40 282 48 233 68 186 b 84 148 110 107 143 73 b 174 41 210 16 252 -3 b 290 -20 330 -31 380 -31 b 422 -31 466 -23 509 -3 b 547 15 580 39 612 82 z"},"q":{"x_min":0,"x_max":543,"ha":543,"o":"m 403 -261 l 458 -261 l 458 488 b 440 493 417 498 389 502 b 360 506 322 508 273 508 b 238 508 206 501 177 488 b 148 475 124 456 104 433 b 83 410 68 382 57 350 b 46 318 40 284 40 247 b 40 211 45 177 54 146 b 63 115 77 88 96 65 b 114 42 136 23 163 10 b 189 -3 219 -10 253 -10 b 286 -10 315 -4 341 9 b 367 22 388 41 403 64 z m 403 170 b 401 148 395 129 385 113 b 375 97 363 84 349 73 b 335 63 320 55 303 50 b 286 45 269 42 253 42 b 227 42 204 48 185 60 b 165 71 149 87 136 106 b 123 125 113 147 107 172 b 100 197 97 209 97 250 b 97 281 101 309 109 334 b 118 359 130 381 145 399 b 161 417 180 431 201 441 b 223 451 247 456 274 456 b 302 456 327 455 350 452 b 373 450 391 448 403 446 z"},"d":{"x_min":0,"x_max":613,"ha":613,"o":"m 460 727 l 405 727 l 405 499 b 390 501 371 503 349 505 b 327 507 302 508 274 508 b 239 508 207 501 178 488 b 149 475 125 456 105 433 b 84 410 69 382 58 350 b 47 318 41 284 41 247 b 41 211 46 178 55 147 b 64 116 78 88 97 65 b 115 42 137 23 164 10 b 190 -3 220 -10 254 -10 b 288 -10 318 -3 344 10 b 370 23 391 43 406 68 b 409 46 419 28 436 13 b 452 -3 472 -10 495 -10 b 510 -10 525 -7 538 1 b 551 8 561 17 569 30 l 524 61 b 517 50 508 45 495 45 b 486 45 478 49 471 56 b 464 63 460 71 460 80 z m 405 188 b 405 163 400 142 391 124 b 382 105 370 90 356 78 b 341 66 325 57 307 51 b 289 45 271 42 254 42 b 228 42 205 48 186 60 b 166 71 150 87 137 106 b 124 125 114 147 108 172 b 101 197 98 223 98 250 b 98 281 102 309 111 334 b 119 359 131 381 147 399 b 162 417 181 431 203 441 b 224 451 248 456 275 456 b 303 456 329 455 353 453 b 376 451 394 449 405 446 z"},"1":{"x_min":0,"x_max":363,"ha":363,"o":"m 278 0 l 278 669 l 270 669 l 212 630 b 193 617 174 605 156 595 b 138 585 120 577 103 571 b 85 564 68 561 51 561 l 64 509 b 94 509 121 515 145 526 b 169 537 193 553 217 573 l 217 0 z"},"5":{"x_min":0,"x_max":520,"ha":520,"o":"m 397 596 l 397 653 b 370 651 303 650 280 649 b 230 648 199 647 63 646 l 63 368 l 68 364 b 81 369 99 374 121 378 b 143 382 168 384 201 384 b 233 384 249 382 275 377 b 306 371 320 366 339 354 b 357 342 370 332 383 309 b 395 288 400 266 400 235 b 400 207 396 185 389 163 b 382 142 373 122 355 102 b 338 84 318 69 297 61 b 281 55 254 50 221 50 b 185 50 164 56 137 69 b 114 80 84 98 55 119 l 43 66 b 47 62 64 49 78 40 b 93 30 116 20 123 17 b 137 10 151 4 170 0 b 183 -3 200 -6 227 -6 b 259 -6 290 -2 317 7 b 343 16 368 30 390 52 b 400 62 411 76 418 87 b 425 98 432 111 439 129 b 444 142 451 161 454 175 b 457 188 459 209 459 226 b 459 261 451 292 440 317 b 426 349 405 371 387 386 b 363 406 343 416 310 426 b 280 435 253 440 211 440 l 183 440 l 124 432 l 124 592 l 281 592 z"}}}
